<svg width="26" height="19" viewBox="0 0 26 19" fill="currentColor" xmlns="http://www.w3.org/2000/svg">
<rect x="14.6267" y="8.58698" width="1.95005" height="5.37636" rx="0.512034" fill="currentColor"/>
<rect x="18.9534" y="8.58698" width="1.95005" height="5.37636" rx="0.512034" fill="currentColor"/>
<rect x="21.9741" y="15.4478" width="1.33134" height="17.4092" rx="0.512034" transform="rotate(90 21.9741 15.4478)" fill="currentColor"/>
<rect x="24.022" y="17.4962" width="1.33134" height="20.9934" rx="0.512034" transform="rotate(90 24.022 17.4962)" fill="currentColor"/>
<rect x="10.2996" y="8.58698" width="1.95005" height="5.37636" rx="0.512034" fill="currentColor"/>
<rect x="5.9729" y="8.58698" width="1.95005" height="5.37636" rx="0.512034" fill="currentColor"/>
<path d="M13.5063 1.1686C13.6742 1.06162 13.8888 1.06162 14.0567 1.1686L22.943 6.83187C23.3748 7.10709 23.1798 7.77571 22.6678 7.77571H4.89523C4.38314 7.77571 4.1882 7.10709 4.62004 6.83187L13.5063 1.1686Z" fill="currentColor"/>
</svg>
