<svg width="21" height="18" viewBox="0 0 21 18" fill="none" xmlns="http://www.w3.org/2000/svg">
<path fill-rule="evenodd" clip-rule="evenodd" d="M8.54492 0H12.5449C13.6495 0 14.5449 0.89543 14.5449 2V3H18.5449C19.6495 3 20.5449 3.89543 20.5449 5V16C20.5449 17.1046 19.6495 18 18.5449 18H2.54492C1.44035 18 0.544922 17.1046 0.544922 16V5C0.544922 3.89543 1.44035 3 2.54492 3H6.54492V2C6.54492 0.89543 7.44035 0 8.54492 0ZM2.54492 5H6.54492H14.5449H18.5449V10H11.5449H9.54492H2.54492V5ZM2.54492 16V12H9.54492V13H11.5449V12H18.5449V16H2.54492ZM12.5449 2V3H8.54492V2H12.5449Z" fill="currentColor"/>
</svg>
