<svg width="20" height="20" viewBox="0 0 20 20" fill="none" xmlns="http://www.w3.org/2000/svg">
<ellipse cx="8.10612" cy="9.6417" rx="0.608561" ry="0.690039" fill="#435B71"/>
<ellipse cx="12.0221" cy="9.6417" rx="0.608561" ry="0.690039" fill="#435B71"/>
<path d="M11.5951 4.0417C13.7085 2.56482 15.2617 1.89502 17.5077 1.54516C17.9648 1.40798 18.3961 1.85201 18.3338 2.39562C18.8306 3.86519 18.695 6.42589 17.5077 9.20344M8.45287 4.00641C5.80234 2.22471 3.95557 1.54516 2.12479 1.54516C1.66764 1.40798 1.23632 1.85201 1.29867 2.39562C0.9559 3.20752 0.833027 5.24838 2.3679 9.20344M17.5077 11.2084C17.5077 15.2639 14.1185 18.5516 9.93779 18.5516C5.75705 18.5516 2.3679 15.2639 2.3679 11.2084C2.3679 10.5133 2.46746 9.84074 2.6535 9.20344C3.55292 6.12245 6.47361 3.86519 9.93779 3.86519C14.1185 3.86519 17.5077 7.15285 17.5077 11.2084Z" stroke="#435B71" stroke-width="1.14286" stroke-linecap="round" stroke-linejoin="round"/>
<path d="M9.92581 12.3881C10.0313 12.5218 10.2127 12.5218 10.3182 12.3881L11.1257 12.0682C11.2823 11.8699 11.1611 11.55 10.9295 11.55H9.3145C9.08287 11.55 8.96175 11.8699 9.1183 12.0682L9.92581 12.3881Z" fill="#435B71"/>
<path d="M9.92581 12.3881C10.1971 14.0476 9.25974 15.1749 7.83104 15.49C6.40234 15.8051 5.02422 14.7153 4.75293 13.0559M9.92581 12.3881L9.1183 12.0682C8.96175 11.8699 9.08287 11.55 9.3145 11.55H10.9295C11.1611 11.55 11.2823 11.8699 11.1257 12.0682L10.3182 12.3881M9.92581 12.3881C10.0313 12.5218 10.2127 12.5218 10.3182 12.3881M10.3182 12.3881C10.0469 14.0476 10.7548 15.1749 12.1835 15.49C13.6122 15.8051 14.9903 14.7153 15.2616 13.0559" stroke="#435B71" stroke-width="0.8" stroke-linecap="round" stroke-linejoin="round"/>
</svg>
