<svg width="19" height="19" viewBox="0 0 19 19" fill="none" xmlns="http://www.w3.org/2000/svg">
<path d="M7.89715 5.51019C9.02131 6.29745 9.65156 6.31478 10.7757 5.51019M9.47354 4.20808C10.8136 4.40235 11.3709 3.01448 12.7288 3.01448C15.4958 3.13504 15.395 7.19208 14.3595 9.06687C13.9516 9.80529 13.6511 10.7883 13.6511 11.6409C13.6511 12.3735 14.0472 19.434 11.8336 17.6632C10.6786 16.7392 11.3394 11.1505 9.23241 11.7525C8.16306 12.058 8.22569 13.7026 8.11718 14.4622C8.04742 14.9505 7.98225 15.5274 7.89715 15.9813C7.78642 16.5719 7.18469 18.3013 6.48954 18.0309C5.29823 17.5676 5.24169 14.9743 5.24169 13.9468C5.24169 13.3628 5.24169 12.793 5.24169 12.2106C5.24169 10.5591 4.06224 9.1411 3.71955 7.59899C3.5182 6.69291 3.41972 5.82667 3.71051 4.91339C4.64974 2.14601 7.03156 2.91185 8.49696 3.92311C8.85639 4.09484 9.08037 4.15108 9.47354 4.20808Z" stroke="#435B71" stroke-width="1.2" stroke-linecap="round"/>
</svg>
