<svg width="26" height="19" viewBox="0 0 26 19" fill="none" xmlns="http://www.w3.org/2000/svg">
<path d="M13.8458 10.5616C13.8804 10.5611 13.9128 10.5609 13.9432 10.5609C13.8775 10.7797 13.7588 11.054 13.5783 11.3172C13.2599 11.7816 13.0208 11.8332 12.9987 11.8332C12.9767 11.8332 12.7376 11.7816 12.4191 11.3172C12.2387 11.054 12.12 10.7797 12.0543 10.5609C12.0846 10.5609 12.117 10.5611 12.1517 10.5616C12.2212 10.5625 12.3139 10.5648 12.4175 10.5673C12.5996 10.5719 12.8155 10.5772 12.9987 10.5772C13.182 10.5772 13.3978 10.5719 13.58 10.5673C13.6835 10.5648 13.7762 10.5625 13.8458 10.5616ZM11.6711 10.5862C11.671 10.5861 11.6724 10.5857 11.6755 10.5849C11.6727 10.5858 11.6711 10.5862 11.6711 10.5862ZM14.322 10.5849C14.325 10.5857 14.3264 10.5861 14.3264 10.5862C14.3263 10.5862 14.3248 10.5858 14.322 10.5849Z" fill="#435B71" stroke="#435B71" stroke-width="2.26209"/>
<path d="M13.2573 12.7034C13.6708 14.3549 14.7373 14.9206 16.3843 15.1775C17.6557 14.9433 18.2169 14.3536 18.9901 12.7034" stroke="#435B71" stroke-width="0.8" stroke-linecap="round"/>
<path d="M12.5122 12.9644C12.0987 14.6159 11.0322 15.1816 9.38526 15.4385C8.11388 15.2043 7.55266 14.6146 6.77948 12.9644" stroke="#435B71" stroke-width="0.8" stroke-linecap="round"/>
<path d="M19.9045 5.39118C20.9252 7.38172 20.958 9.38499 22.1395 10.4018C23.6812 11.3651 24.7368 8.89669 24.467 7.10714C23.0384 3.61033 20.6614 1.15782 18.9224 0.977417C17.3282 1.15159 16.8571 1.80301 16.0374 2.99181M16.0374 2.99181C14.5564 2.04964 13.9238 1.86775 12.9412 1.7981M16.0374 2.99181C17.1509 5.24487 21.9825 11.9718 17.304 15.8988C15.6152 17.3164 14.9579 17.2535 12.5894 17.3164M6.13981 5.39118C5.11911 7.38172 5.03941 9.38499 3.85796 10.4018C2.31624 11.3651 1.2606 8.89669 1.5304 7.10714C2.95906 3.61033 5.33598 1.15782 7.07502 0.977417C8.66922 1.15159 9.14031 1.80301 9.96006 2.99181M9.96006 2.99181C11.441 2.04964 12.0736 1.86775 13.0562 1.7981M9.96006 2.99181C8.84657 5.24487 4.01497 11.9718 8.69346 15.8988C10.3823 17.3164 11.0396 17.2535 13.408 17.3164" stroke="#435B71" stroke-width="1.14286" stroke-linecap="round"/>
<ellipse cx="10.7538" cy="7.50763" rx="0.637071" ry="0.742249" fill="#435B71"/>
<ellipse cx="14.6366" cy="7.50763" rx="0.637071" ry="0.742249" fill="#435B71"/>
</svg>
