<svg width="8" height="14" viewBox="0 0 8 14" fill="none" xmlns="http://www.w3.org/2000/svg">
<path d="M5.03467 10.8896C5.75244 10.7822 6.11133 10.2622 6.11133 9.32959C6.11133 8.83643 6.03809 8.46289 5.8916 8.20898C5.74512 7.95508 5.45947 7.74756 5.03467 7.58643V10.8896ZM2.52246 3.99023C2.52246 4.3125 2.57617 4.58105 2.68359 4.7959C2.79102 5.01074 2.98877 5.1792 3.27686 5.30127V2.62061C2.77393 2.83545 2.52246 3.29199 2.52246 3.99023ZM1.48242 5.85791C1.30664 5.64307 1.16016 5.37451 1.04297 5.05225C0.925781 4.7251 0.867188 4.36377 0.867188 3.96826C0.867188 3.56787 0.95752 3.17725 1.13818 2.79639C1.31885 2.41064 1.59229 2.06885 1.9585 1.771C2.32959 1.46826 2.76904 1.25342 3.27686 1.12646V0.782227H5.03467V1.10449C5.78662 1.26562 6.38232 1.63184 6.82178 2.20312C6.98779 2.42285 7.10742 2.60352 7.18066 2.74512L7.29785 2.97217L6.04541 3.63135C5.88428 3.20166 5.54736 2.85742 5.03467 2.59863V5.88721L5.4375 6.04102C6.17969 6.33398 6.72412 6.67578 7.0708 7.06641C7.33936 7.37891 7.52002 7.65723 7.61279 7.90137C7.78369 8.37988 7.86914 8.7998 7.86914 9.16113C7.86914 9.52246 7.8374 9.83496 7.77393 10.0986C7.71045 10.3574 7.60303 10.6235 7.45166 10.897C7.30518 11.1655 7.12695 11.4048 6.91699 11.6147C6.43359 12.103 5.80615 12.3521 5.03467 12.3618V13.8486H3.27686V12.208C2.46143 11.998 1.79492 11.5806 1.27734 10.9556C1.15527 10.8091 1.06494 10.6919 1.00635 10.604C0.952637 10.5112 0.925781 10.4648 0.925781 10.4648L2.1123 9.6958C2.1123 9.6958 2.12451 9.72754 2.14893 9.79102C2.17822 9.84961 2.21973 9.92773 2.27344 10.0254C2.33203 10.123 2.40283 10.2231 2.48584 10.3257C2.68115 10.5747 2.94482 10.7529 3.27686 10.8604V7.00049C2.87647 6.9126 2.52002 6.75391 2.20752 6.52441C1.8999 6.29492 1.6582 6.07275 1.48242 5.85791Z" fill="currentColor"/>
</svg>
