<svg width="126" height="27" viewBox="0 0 126 27" fill="none" xmlns="http://www.w3.org/2000/svg">
<path d="M84.5307 0.75C70.2822 8.84828 59.2017 15.5116 49.6762 16.1149C42.6174 16.5619 35.3611 11.7127 30.4954 6.00174C19.9344 10.2732 12.2238 13.7374 0.75 20.9763C15.1372 15.0302 22.7908 11.7624 29.2398 10.5438C32.6672 31.2205 55.0887 20.1977 83.1019 6.85337C89.3303 12.233 94.6191 16.3633 99.2519 20.0537C101.802 22.0848 104.344 25.069 109.513 26.2635C113.279 27.1338 120.209 26.7634 125.75 25.7312C119.109 25.4149 116.044 24.4347 113.627 21.7215C109.967 17.6133 108.71 15.3563 104.404 12.1051C97.4463 6.85111 94.5673 5.30231 84.5307 0.75Z" fill="#0F1B26"/>
</svg>
