<svg width="19" height="19" viewBox="0 0 19 19" fill="none" xmlns="http://www.w3.org/2000/svg">
<path d="M3.06371 1.54795C2.75795 1.24219 2.9745 0.719385 3.40692 0.719385H15.7249C16.1445 0.719385 16.3664 1.21573 16.0866 1.52838L12.9194 5.06823C11.0172 7.19422 11.0172 10.4103 12.9194 12.5363L16.0866 16.0762C16.3664 16.3888 16.1445 16.8852 15.7249 16.8852H3.40692C2.97451 16.8852 2.75795 16.3624 3.06371 16.0566L6.35825 12.7621C8.54519 10.5751 8.54518 7.02942 6.35825 4.84248L3.06371 1.54795Z" stroke="#435B71" stroke-width="1.2"/>
<path d="M10.3835 3.91014C10.8289 3.91014 11.052 4.44871 10.737 4.76369L9.82279 5.67791C9.62753 5.87317 9.31095 5.87317 9.11568 5.67791L8.20147 4.76369C7.88649 4.44871 8.10957 3.91014 8.55502 3.91014L10.3835 3.91014Z" fill="#435B71"/>
<path d="M11.4759 15.0021C11.9213 15.0021 12.1444 14.4635 11.8294 14.1485L9.82328 12.1424C9.62802 11.9471 9.31144 11.9471 9.11617 12.1424L7.11002 14.1485C6.79504 14.4635 7.01813 15.0021 7.46358 15.0021H11.4759Z" fill="#435B71"/>
</svg>
