<svg width="19" height="18" viewBox="0 0 19 18" fill="none" xmlns="http://www.w3.org/2000/svg">
<circle cx="9.72001" cy="8.70365" r="8.18546" stroke="currentColor" stroke-width="0.994867"/>
<path d="M9.58634 4.72353C9.86636 4.72353 10.1073 4.83749 10.3092 5.06542C10.5176 5.29334 10.6218 5.58965 10.6218 5.95433C10.6218 6.20179 10.5892 6.46879 10.5241 6.75532C10.459 7.04186 10.358 7.40003 10.2213 7.82983C10.0585 8.37034 9.93149 8.83596 9.84032 9.22669C9.74914 9.61091 9.69379 10.0179 9.67425 10.4477H9.49843C9.47889 10.0179 9.42354 9.61091 9.33237 9.22669C9.2412 8.83596 9.11421 8.37034 8.9514 7.82983C8.81465 7.40003 8.71371 7.04186 8.64859 6.75532C8.58347 6.46879 8.55091 6.20179 8.55091 5.95433C8.55091 5.58313 8.64533 5.28683 8.83418 5.06542C9.02955 4.83749 9.28027 4.72353 9.58634 4.72353ZM9.58634 10.8189C9.89892 10.8189 10.1366 10.8906 10.2994 11.0338C10.4687 11.1771 10.5534 11.3855 10.5534 11.659C10.5534 11.9325 10.4687 12.1409 10.2994 12.2842C10.1366 12.4274 9.89892 12.4991 9.58634 12.4991C9.27376 12.4991 9.03281 12.4274 8.86349 12.2842C8.70068 12.1409 8.61928 11.9325 8.61928 11.659C8.61928 11.3855 8.70068 11.1771 8.86349 11.0338C9.03281 10.8906 9.27376 10.8189 9.58634 10.8189Z" fill="currentColor"/>
</svg>
