<svg width="20" height="20" viewBox="0 0 20 20" fill="none" xmlns="http://www.w3.org/2000/svg">
<path fill-rule="evenodd" clip-rule="evenodd" d="M9.83652 19.3945C4.67347 19.3254 0.558565 15.0744 0.645619 9.89961C0.732673 4.72482 4.98872 0.585836 10.1518 0.654934C15.3148 0.724035 19.4297 4.97505 19.3427 10.1498C19.2556 15.3246 14.9996 19.4636 9.83652 19.3945ZM9.86799 18.2024C14.3713 18.2651 18.0811 14.6569 18.1541 10.1433C18.2271 5.62971 14.6357 1.91989 10.1324 1.85721C5.62908 1.79452 1.91927 5.40271 1.84626 9.91632C1.77325 14.4299 5.36471 18.1398 9.86799 18.2024ZM10.3706 10.8868C10.7268 10.892 10.8986 11.3251 10.6429 11.5735L9.64176 12.5462C9.48335 12.7001 9.47941 12.9531 9.63295 13.1115L10.2604 13.7588C10.4142 13.9175 10.6677 13.9212 10.8263 13.767L14.3177 10.375C14.4761 10.2211 14.48 9.96809 14.3265 9.80968L10.9424 6.31833C10.7886 6.15966 10.5351 6.156 10.3765 6.31016L9.72916 6.93907C9.57075 7.09297 9.56681 7.34594 9.72035 7.50435L10.6908 8.50553C10.9386 8.76119 10.7534 9.18918 10.3971 9.18404L6.16124 9.12286C5.94035 9.11966 5.75849 9.29614 5.75504 9.51703L5.74097 10.4199C5.73753 10.6408 5.9138 10.8225 6.13469 10.8257L10.3706 10.8868Z" fill="currentColor"/>
</svg>
