<svg width="19" height="19" viewBox="0 0 19 19" fill="none" xmlns="http://www.w3.org/2000/svg">
<path d="M2.0307 9.56851C1.99988 8.39201 2.2409 7.27154 2.69664 6.26729M9.35312 1.85205C10.3428 1.82612 11.2929 1.99257 12.1675 2.31739C13.0127 2.63131 13.7874 3.09314 14.4593 3.67219C15.1829 4.29583 15.7871 5.05543 16.2317 5.91265C16.7394 6.89165 17.0388 7.99797 17.0696 9.17447C17.1004 10.351 16.8594 11.4714 16.4036 12.4757C16.0046 13.355 15.4409 14.1452 14.751 14.8059C14.1104 15.4193 13.3609 15.9211 12.5333 16.2789C11.6769 16.649 10.7369 16.865 9.74716 16.8909C8.75745 16.9169 7.80738 16.7504 6.9328 16.4256M4.64101 15.0708C3.91742 14.4472 3.31315 13.6875 2.8686 12.8303M4.34929 3.93709C4.9899 3.32365 5.73936 2.82188 6.56698 2.46413" stroke="#435B71" stroke-width="1.2" stroke-linecap="round" stroke-linejoin="round"/>
<circle cx="9.73127" cy="9.40497" r="0.940253" stroke="#435B71" stroke-width="1.41038"/>
<path d="M9.74463 8.2998L9.72735 4.97648" stroke="#435B71" stroke-width="1.41038" stroke-linecap="round"/>
<path d="M9.55414 10.4081L7.65674 13.7815" stroke="#435B71" stroke-width="1.41038" stroke-linecap="round"/>
</svg>
